<svg xmlns="http://www.w3.org/2000/svg" width="60" height="60" viewBox="0 0 60 60">
  <defs>
    <style>
      .cls-1 {
        fill: #fff;
      }

      .cls-1, .cls-2, .cls-3 {
        fill-rule: evenodd;
      }

      .cls-2 {
        fill: #98e8ec;
      }

      .cls-3 {
        fill: red;
      }
    </style>
  </defs>
  <path id="white" class="cls-1" d="M4,0H8V4h4v8H8V8H4v4H0V4H4V0ZM52,0h4V4h4v8H56V8H52v4H48V4h4V0ZM12,12h4v4H12V12Zm32,0h4v4H44V12ZM16,16h4v4h4v4H20v8h4v4H16V32H12V28h4V16Zm24,0h4V28h4v4H44v4H36V32h4V24H36V20h4V16ZM28,20h4v4h4v8H32v4h4v4H32v4h4v4H56v4H52v4H36V52H24v4H8V52H4V48H24V44h4V40H24V36h4V32H24V24h4V20ZM0,28H4v4H0V28Zm56,0h4v4H56V28ZM4,32h8v4H8v8H4V32Zm44,0h8V44H52V36H48V32ZM0,44H4v4H0V44Zm56,0h4v4H56V44Z"/>
  <path id="sky" class="cls-2" d="M4,8H8v4H4V8ZM52,8h4v4H52V8ZM0,12H4V24H8v8H4V28H0V12Zm8,0h4v4H8V12Zm40,0h4v4H48V12Zm8,0h4V28H56v4H52V24h4V12ZM12,16h4v4H12V16Zm32,0h4v4H44V16ZM24,52H36v4H24V52ZM12,56H24v4H12V56Zm24,0H48v4H36V56Z"/>
  <path id="Red" class="cls-3" d="M4,12H8v4h4v4h4v8H12v4H8V24H4V12Zm48,0h4V24H52v8H48V28H44V20h4V16h4V12ZM24,20h4v4H24V20Zm8,0h4v4H32V20ZM20,24h4v8H20V24Zm16,0h4v8H36V24ZM12,32h4v4H12V32Zm12,0h4v4H24V32Zm8,0h4v4H32V32Zm12,0h4v4H44V32ZM8,36h4v8H24v4H4V44H8V36Zm8,0h8v4H16V36Zm20,0h8v4H36V36Zm12,0h4v8h4v4H36V44H48V36ZM24,40h4v4H24V40Zm8,0h4v4H32V40Z"/>
</svg>
